<svg width="38" height="38" viewBox="0 0 38 38" fill="none" xmlns="http://www.w3.org/2000/svg">
<rect x="9" y="8" width="21" height="21" fill="white"/>
<mask id="mask0_187_15" style="mask-type:alpha" maskUnits="userSpaceOnUse" x="0" y="0" width="38" height="38">
<rect width="38" height="38" fill="#802A76"/>
</mask>
<g mask="url(#mask0_187_15)">
<path d="M17.125 27.875H20.7083V20.7083H27.875V17.125H20.7083V9.95833H17.125V17.125H9.95833V20.7083H17.125V27.875ZM18.9167 36.8333C16.4382 36.8333 14.109 36.363 11.9292 35.4224C9.74931 34.4818 7.85312 33.2052 6.24062 31.5927C4.62812 29.9802 3.35156 28.084 2.41094 25.9042C1.47031 23.7243 1 21.3951 1 18.9167C1 16.4382 1.47031 14.109 2.41094 11.9292C3.35156 9.74931 4.62812 7.85312 6.24062 6.24062C7.85312 4.62812 9.74931 3.35156 11.9292 2.41094C14.109 1.47031 16.4382 1 18.9167 1C21.3951 1 23.7243 1.47031 25.9042 2.41094C28.084 3.35156 29.9802 4.62812 31.5927 6.24062C33.2052 7.85312 34.4818 9.74931 35.4224 11.9292C36.363 14.109 36.8333 16.4382 36.8333 18.9167C36.8333 21.3951 36.363 23.7243 35.4224 25.9042C34.4818 28.084 33.2052 29.9802 31.5927 31.5927C29.9802 33.2052 28.084 34.4818 25.9042 35.4224C23.7243 36.363 21.3951 36.8333 18.9167 36.8333Z" fill="#802A76"/>
</g>
</svg>
