<svg width="15" height="16" viewBox="0 0 15 16" fill="none" xmlns="http://www.w3.org/2000/svg">
<mask id="mask0_84_3" style="mask-type:alpha" maskUnits="userSpaceOnUse" x="0" y="0" width="15" height="16">
<rect x="0.5" y="1.45679" width="13.3518" height="13.3518" fill="#D9D9D9" stroke="#802A76"/>
</mask>
<g mask="url(#mask0_84_3)">
<path d="M1.89194 3.34882V10.5247V11.1975V12.3861L2.74158 11.5549L3.28352 11.0247H11.9598H12.4419C12.3031 11.1597 12.1509 11.2207 11.9598 11.2207H3.58792H3.38081L3.23437 11.3671L1.69595 12.9056V3.34882C1.69595 3.15773 1.75696 3.00549 1.89194 2.86672V3.34882ZM12.6558 10.5247C12.6558 10.7158 12.5948 10.868 12.4598 11.0068V10.5247V3.34882V2.86672C12.5948 3.00549 12.6558 3.15773 12.6558 3.34882V10.5247ZM12.4419 2.84882H11.9598H2.39194H1.90984C2.04861 2.71384 2.20085 2.65283 2.39194 2.65283H11.9598C12.1509 2.65283 12.3031 2.71384 12.4419 2.84882Z" fill="#D33476" stroke="#D33476"/>
</g>
</svg>
