<svg width="18" height="18" viewBox="0 0 18 18" fill="none" xmlns="http://www.w3.org/2000/svg">
<mask id="mask0_84_12" style="mask-type:alpha" maskUnits="userSpaceOnUse" x="0" y="0" width="18" height="18">
<rect x="0.959351" y="0.956787" width="16.2654" height="16.2654" fill="#D9D9D9"/>
</mask>
<g mask="url(#mask0_84_12)">
<path d="M9.09203 15.1892L8.10933 14.3081C6.9685 13.2802 6.02533 12.3936 5.27983 11.6481C4.53434 10.9026 3.94133 10.2333 3.50081 9.6403C3.06029 9.04729 2.75249 8.50229 2.57741 8.00529C2.40233 7.50829 2.31479 7 2.31479 6.48041C2.31479 5.41865 2.67059 4.53196 3.3822 3.82035C4.09382 3.10873 4.9805 2.75293 6.04227 2.75293C6.62963 2.75293 7.18876 2.87718 7.71964 3.12568C8.25052 3.37418 8.70799 3.72433 9.09203 4.17615C9.47607 3.72433 9.93354 3.37418 10.4644 3.12568C10.9953 2.87718 11.5544 2.75293 12.1418 2.75293C13.2036 2.75293 14.0902 3.10873 14.8019 3.82035C15.5135 4.53196 15.8693 5.41865 15.8693 6.48041C15.8693 7 15.7817 7.50829 15.6067 8.00529C15.4316 8.50229 15.1238 9.04729 14.6833 9.6403C14.2427 10.2333 13.6497 10.9026 12.9042 11.6481C12.1587 12.3936 11.2156 13.2802 10.0747 14.3081L9.09203 15.1892ZM9.09203 13.3593C10.1764 12.3879 11.0687 11.5549 11.769 10.8602C12.4694 10.1655 13.0228 9.56123 13.4295 9.04729C13.8361 8.53335 14.1185 8.07589 14.2766 7.6749C14.4348 7.27392 14.5138 6.87575 14.5138 6.48041C14.5138 5.80269 14.2879 5.23792 13.8361 4.7861C13.3843 4.33429 12.8195 4.10838 12.1418 4.10838C11.6109 4.10838 11.1196 4.25804 10.6677 4.55737C10.2159 4.8567 9.9053 5.23792 9.73587 5.70103H8.44819C8.27876 5.23792 7.96814 4.8567 7.51632 4.55737C7.06451 4.25804 6.57316 4.10838 6.04227 4.10838C5.36455 4.10838 4.79978 4.33429 4.34796 4.7861C3.89615 5.23792 3.67024 5.80269 3.67024 6.48041C3.67024 6.87575 3.74931 7.27392 3.90744 7.6749C4.06558 8.07589 4.34796 8.53335 4.7546 9.04729C5.16123 9.56123 5.71471 10.1655 6.41502 10.8602C7.11534 11.5549 8.00767 12.3879 9.09203 13.3593Z" fill="#D33476"/>
</g>
</svg>
