<svg width="10" height="10" viewBox="0 0 10 10" fill="none" xmlns="http://www.w3.org/2000/svg">
<mask id="mask0_34_712" style="mask-type:alpha" maskUnits="userSpaceOnUse" x="0" y="0" width="10" height="10">
<rect width="10" height="10" fill="#D9D9D9"/>
</mask>
<g mask="url(#mask0_34_712)">
<path d="M2.83327 8.91667L2.43744 8.52083L1.99994 8.95833C1.86799 9.09028 1.70654 9.15799 1.51556 9.16146C1.32459 9.16493 1.16661 9.09722 1.04161 8.95833C0.909661 8.82639 0.843689 8.66667 0.843689 8.47917C0.843689 8.29167 0.909661 8.13194 1.04161 8L1.47911 7.5625L1.08327 7.14583L6.85411 1.375C6.93744 1.29167 7.03813 1.25 7.15619 1.25C7.27424 1.25 7.37494 1.29167 7.45827 1.375L8.62494 2.54167C8.70827 2.625 8.74994 2.72569 8.74994 2.84375C8.74994 2.96181 8.70827 3.0625 8.62494 3.14583L2.83327 8.91667ZM4.62494 4.79167L2.24994 7.14583L2.85411 7.75L5.20827 5.375L4.62494 4.79167Z" fill="white"/>
</g>
</svg>
