<svg width="17" height="17" viewBox="0 0 17 17" fill="none" xmlns="http://www.w3.org/2000/svg">
<mask id="mask0_84_6" style="mask-type:alpha" maskUnits="userSpaceOnUse" x="0" y="0" width="17" height="17">
<rect x="0.240479" width="16.2654" height="16.2654" fill="#D9D9D9"/>
</mask>
<g mask="url(#mask0_84_6)">
<path d="M11.7618 14.91C11.197 14.91 10.717 14.7123 10.3216 14.3169C9.92628 13.9216 9.72861 13.4416 9.72861 12.8768C9.72861 12.809 9.74555 12.6509 9.77944 12.4024L5.01842 9.6237C4.8377 9.79314 4.62873 9.92586 4.39153 10.0219C4.15433 10.1179 3.90018 10.1659 3.62909 10.1659C3.06432 10.1659 2.58426 9.96821 2.18893 9.57288C1.79359 9.17754 1.59592 8.69748 1.59592 8.13271C1.59592 7.56794 1.79359 7.08789 2.18893 6.69255C2.58426 6.29721 3.06432 6.09954 3.62909 6.09954C3.90018 6.09954 4.15433 6.14754 4.39153 6.24355C4.62873 6.33957 4.8377 6.47229 5.01842 6.64172L9.77944 3.86305C9.75685 3.78398 9.74273 3.70774 9.73708 3.63432C9.73143 3.5609 9.72861 3.479 9.72861 3.38864C9.72861 2.82387 9.92628 2.34382 10.3216 1.94848C10.717 1.55314 11.197 1.35547 11.7618 1.35547C12.3266 1.35547 12.8066 1.55314 13.2019 1.94848C13.5973 2.34382 13.795 2.82387 13.795 3.38864C13.795 3.95341 13.5973 4.43347 13.2019 4.82881C12.8066 5.22414 12.3266 5.42181 11.7618 5.42181C11.4907 5.42181 11.2365 5.37381 10.9993 5.2778C10.7621 5.18179 10.5532 5.04907 10.3724 4.87964L5.61143 7.6583C5.63402 7.73737 5.64814 7.81362 5.65379 7.88704C5.65944 7.96046 5.66226 8.04235 5.66226 8.13271C5.66226 8.22307 5.65944 8.30497 5.65379 8.37839C5.64814 8.45181 5.63402 8.52805 5.61143 8.60712L10.3724 11.3858C10.5532 11.2164 10.7621 11.0836 10.9993 10.9876C11.2365 10.8916 11.4907 10.8436 11.7618 10.8436C12.3266 10.8436 12.8066 11.0413 13.2019 11.4366C13.5973 11.832 13.795 12.312 13.795 12.8768C13.795 13.4416 13.5973 13.9216 13.2019 14.3169C12.8066 14.7123 12.3266 14.91 11.7618 14.91ZM11.7618 13.5545C11.9538 13.5545 12.1148 13.4896 12.2447 13.3597C12.3746 13.2298 12.4395 13.0688 12.4395 12.8768C12.4395 12.6848 12.3746 12.5238 12.2447 12.3939C12.1148 12.264 11.9538 12.1991 11.7618 12.1991C11.5698 12.1991 11.4088 12.264 11.2789 12.3939C11.149 12.5238 11.0841 12.6848 11.0841 12.8768C11.0841 13.0688 11.149 13.2298 11.2789 13.3597C11.4088 13.4896 11.5698 13.5545 11.7618 13.5545ZM3.62909 8.81044C3.82111 8.81044 3.98207 8.74549 4.11197 8.61559C4.24187 8.48569 4.30681 8.32473 4.30681 8.13271C4.30681 7.94069 4.24187 7.77973 4.11197 7.64983C3.98207 7.51994 3.82111 7.45499 3.62909 7.45499C3.43707 7.45499 3.27611 7.51994 3.14621 7.64983C3.01631 7.77973 2.95137 7.94069 2.95137 8.13271C2.95137 8.32473 3.01631 8.48569 3.14621 8.61559C3.27611 8.74549 3.43707 8.81044 3.62909 8.81044ZM11.7618 4.06637C11.9538 4.06637 12.1148 4.00142 12.2447 3.87152C12.3746 3.74162 12.4395 3.58066 12.4395 3.38864C12.4395 3.19662 12.3746 3.03566 12.2447 2.90576C12.1148 2.77587 11.9538 2.71092 11.7618 2.71092C11.5698 2.71092 11.4088 2.77587 11.2789 2.90576C11.149 3.03566 11.0841 3.19662 11.0841 3.38864C11.0841 3.58066 11.149 3.74162 11.2789 3.87152C11.4088 4.00142 11.5698 4.06637 11.7618 4.06637Z" fill="#D33476"/>
</g>
</svg>
