<svg xmlns="http://www.w3.org/2000/svg" width="28" height="30" viewBox="0 0 28 30" fill="none">
  <g filter="url(#filter0_d_36_962)">
    <mask id="mask0_36_962" style="mask-type:alpha" maskUnits="userSpaceOnUse" x="2" y="0" width="24" height="24">
      <rect x="2" width="24" height="24" fill="#D9D9D9"/>
    </mask>
    <g mask="url(#mask0_36_962)">
      <path d="M4 22V4C4 3.45 4.19583 2.97917 4.5875 2.5875C4.97917 2.19583 5.45 2 6 2H22C22.55 2 23.0208 2.19583 23.4125 2.5875C23.8042 2.97917 24 3.45 24 4V16C24 16.55 23.8042 17.0208 23.4125 17.4125C23.0208 17.8042 22.55 18 22 18H8L4 22ZM7.15 16H22V4H6V17.125L7.15 16Z" fill="#D9D9D9"/>
    </g>
  </g>
  <defs>
    <filter id="filter0_d_36_962" x="0" y="2" width="28" height="28" filterUnits="userSpaceOnUse" color-interpolation-filters="sRGB">
      <feFlood flood-opacity="0" result="BackgroundImageFix"/>
      <feColorMatrix in="SourceAlpha" type="matrix" values="0 0 0 0 0 0 0 0 0 0 0 0 0 0 0 0 0 0 127 0" result="hardAlpha"/>
      <feOffset dy="4"/>
      <feGaussianBlur stdDeviation="2"/>
      <feComposite in2="hardAlpha" operator="out"/>
      <feColorMatrix type="matrix" values="0 0 0 0 0 0 0 0 0 0 0 0 0 0 0 0 0 0 0.25 0"/>
      <feBlend mode="normal" in2="BackgroundImageFix" result="effect1_dropShadow_36_962"/>
      <feBlend mode="normal" in="SourceGraphic" in2="effect1_dropShadow_36_962" result="shape"/>
    </filter>
  </defs>
</svg>