<svg xmlns="http://www.w3.org/2000/svg" width="32" height="34" viewBox="0 0 32 34" fill="none">
  <g filter="url(#filter0_d_36_956)">
    <mask id="mask0_36_956" style="mask-type:alpha" maskUnits="userSpaceOnUse" x="2" y="0" width="28" height="28">
      <rect x="2" width="28" height="28" fill="#D9D9D9"/>
    </mask>
    <g mask="url(#mask0_36_956)">
      <path d="M8.82498 19.9499C9.81665 19.1916 10.925 18.5937 12.15 18.1562C13.375 17.7187 14.6583 17.4999 16 17.4999C17.3416 17.4999 18.625 17.7187 19.85 18.1562C21.075 18.5937 22.1833 19.1916 23.175 19.9499C23.8555 19.1527 24.3854 18.2485 24.7646 17.2374C25.1437 16.2263 25.3333 15.1471 25.3333 13.9999C25.3333 11.4138 24.4243 9.21172 22.6062 7.39367C20.7882 5.57561 18.5861 4.66659 16 4.66659C13.4139 4.66659 11.2118 5.57561 9.39373 7.39367C7.57567 9.21172 6.66665 11.4138 6.66665 13.9999C6.66665 15.1471 6.85623 16.2263 7.2354 17.2374C7.61456 18.2485 8.14442 19.1527 8.82498 19.9499ZM16 15.1666C14.8528 15.1666 13.8854 14.7728 13.0979 13.9853C12.3104 13.1978 11.9166 12.2305 11.9166 11.0833C11.9166 9.93603 12.3104 8.96867 13.0979 8.18117C13.8854 7.39367 14.8528 6.99992 16 6.99992C17.1472 6.99992 18.1146 7.39367 18.9021 8.18117C19.6896 8.96867 20.0833 9.93603 20.0833 11.0833C20.0833 12.2305 19.6896 13.1978 18.9021 13.9853C18.1146 14.7728 17.1472 15.1666 16 15.1666ZM16 25.6666C14.3861 25.6666 12.8694 25.3603 11.45 24.7478C10.0305 24.1353 8.79581 23.3041 7.74581 22.2541C6.69581 21.2041 5.86456 19.9694 5.25206 18.5499C4.63956 17.1305 4.33331 15.6138 4.33331 13.9999C4.33331 12.386 4.63956 10.8694 5.25206 9.44992C5.86456 8.03047 6.69581 6.79575 7.74581 5.74575C8.79581 4.69575 10.0305 3.8645 11.45 3.252C12.8694 2.6395 14.3861 2.33325 16 2.33325C17.6139 2.33325 19.1305 2.6395 20.55 3.252C21.9694 3.8645 23.2041 4.69575 24.2541 5.74575C25.3041 6.79575 26.1354 8.03047 26.7479 9.44992C27.3604 10.8694 27.6666 12.386 27.6666 13.9999C27.6666 15.6138 27.3604 17.1305 26.7479 18.5499C26.1354 19.9694 25.3041 21.2041 24.2541 22.2541C23.2041 23.3041 21.9694 24.1353 20.55 24.7478C19.1305 25.3603 17.6139 25.6666 16 25.6666ZM16 23.3333C17.0305 23.3333 18.0028 23.1826 18.9166 22.8812C19.8305 22.5798 20.6666 22.1471 21.425 21.5833C20.6666 21.0194 19.8305 20.5867 18.9166 20.2853C18.0028 19.9839 17.0305 19.8333 16 19.8333C14.9694 19.8333 13.9972 19.9839 13.0833 20.2853C12.1694 20.5867 11.3333 21.0194 10.575 21.5833C11.3333 22.1471 12.1694 22.5798 13.0833 22.8812C13.9972 23.1826 14.9694 23.3333 16 23.3333ZM16 12.8333C16.5055 12.8333 16.9236 12.668 17.2541 12.3374C17.5847 12.0069 17.75 11.5888 17.75 11.0833C17.75 10.5777 17.5847 10.1596 17.2541 9.82909C16.9236 9.49853 16.5055 9.33325 16 9.33325C15.4944 9.33325 15.0764 9.49853 14.7458 9.82909C14.4153 10.1596 14.25 10.5777 14.25 11.0833C14.25 11.5888 14.4153 12.0069 14.7458 12.3374C15.0764 12.668 15.4944 12.8333 16 12.8333Z" fill="#D9D9D9"/>
    </g>
  </g>
  <defs>
    <filter id="filter0_d_36_956" x="0.333313" y="2.33325" width="31.3333" height="31.3333" filterUnits="userSpaceOnUse" color-interpolation-filters="sRGB">
      <feFlood flood-opacity="0" result="BackgroundImageFix"/>
      <feColorMatrix in="SourceAlpha" type="matrix" values="0 0 0 0 0 0 0 0 0 0 0 0 0 0 0 0 0 0 127 0" result="hardAlpha"/>
      <feOffset dy="4"/>
      <feGaussianBlur stdDeviation="2"/>
      <feComposite in2="hardAlpha" operator="out"/>
      <feColorMatrix type="matrix" values="0 0 0 0 0 0 0 0 0 0 0 0 0 0 0 0 0 0 0.25 0"/>
      <feBlend mode="normal" in2="BackgroundImageFix" result="effect1_dropShadow_36_956"/>
      <feBlend mode="normal" in="SourceGraphic" in2="effect1_dropShadow_36_956" result="shape"/>
    </filter>
  </defs>
</svg>